<svg xmlns="http://www.w3.org/2000/svg" xmlns:xlink="http://www.w3.org/1999/xlink" width="500" zoomAndPan="magnify" viewBox="0 0 375 112.499997" height="150" preserveAspectRatio="xMidYMid meet" version="1.0"><defs><g/><clipPath id="12622c3657"><path d="M 1 5.4375 L 63.550781 5.4375 L 63.550781 106.238281 L 1 106.238281 Z M 1 5.4375 " clip-rule="nonzero"/></clipPath></defs><g clip-path="url(#12622c3657)"><path fill="#000000" d="M 24.996094 5.421875 L 63.71875 5.421875 L 32.386719 50.949219 L 63.71875 52.125 L 17.605469 106.519531 L 24.402344 64.546875 L 1.050781 66.316406 L 24.996094 5.421875 " fill-opacity="1" fill-rule="nonzero"/></g><g fill="#000000" fill-opacity="1"><g transform="translate(72.694966, 75.806905)"><g><path d="M 26.609375 -61.40625 C 29.867188 -61.40625 33.054688 -60.925781 36.171875 -59.96875 C 39.296875 -59.019531 41.613281 -58.082031 43.125 -57.15625 L 45.3125 -55.703125 L 39.765625 -44.734375 C 39.328125 -45.023438 38.71875 -45.398438 37.9375 -45.859375 C 37.15625 -46.328125 35.691406 -46.953125 33.546875 -47.734375 C 31.398438 -48.515625 29.40625 -48.90625 27.5625 -48.90625 C 25.269531 -48.90625 23.5 -48.414062 22.25 -47.4375 C 21.007812 -46.457031 20.390625 -45.140625 20.390625 -43.484375 C 20.390625 -42.660156 20.679688 -41.894531 21.265625 -41.1875 C 21.847656 -40.476562 22.847656 -39.722656 24.265625 -38.921875 C 25.679688 -38.117188 26.925781 -37.472656 28 -36.984375 C 29.070312 -36.492188 30.726562 -35.765625 32.96875 -34.796875 C 36.863281 -33.140625 40.1875 -30.882812 42.9375 -28.03125 C 45.695312 -25.175781 47.078125 -21.945312 47.078125 -18.34375 C 47.078125 -14.882812 46.453125 -11.863281 45.203125 -9.28125 C 43.960938 -6.695312 42.257812 -4.671875 40.09375 -3.203125 C 37.925781 -1.742188 35.523438 -0.664062 32.890625 0.03125 C 30.253906 0.738281 27.40625 1.09375 24.34375 1.09375 C 21.707031 1.09375 19.125 0.820312 16.59375 0.28125 C 14.0625 -0.25 11.941406 -0.914062 10.234375 -1.71875 C 8.523438 -2.519531 6.988281 -3.3125 5.625 -4.09375 C 4.257812 -4.875 3.257812 -5.53125 2.625 -6.0625 L 1.6875 -6.875 L 8.546875 -18.421875 C 9.128906 -17.929688 9.929688 -17.304688 10.953125 -16.546875 C 11.984375 -15.796875 13.800781 -14.785156 16.40625 -13.515625 C 19.007812 -12.253906 21.3125 -11.625 23.3125 -11.625 C 29.113281 -11.625 32.015625 -13.597656 32.015625 -17.546875 C 32.015625 -18.367188 31.804688 -19.132812 31.390625 -19.84375 C 30.972656 -20.550781 30.238281 -21.257812 29.1875 -21.96875 C 28.144531 -22.675781 27.222656 -23.234375 26.421875 -23.640625 C 25.617188 -24.054688 24.300781 -24.691406 22.46875 -25.546875 C 20.644531 -26.398438 19.296875 -27.046875 18.421875 -27.484375 C 14.765625 -29.285156 11.9375 -31.535156 9.9375 -34.234375 C 7.9375 -36.941406 6.9375 -39.859375 6.9375 -42.984375 C 6.9375 -48.390625 8.9375 -52.8125 12.9375 -56.25 C 16.9375 -59.6875 21.492188 -61.40625 26.609375 -61.40625 Z M 26.609375 -61.40625 "/></g></g></g><g fill="#000000" fill-opacity="1"><g transform="translate(114.935595, 75.806905)"><g><path d="M 42.96875 -32.859375 C 46.476562 -29.035156 48.234375 -24.34375 48.234375 -18.78125 C 48.234375 -13.226562 46.476562 -8.523438 42.96875 -4.671875 C 39.46875 -0.828125 35.015625 1.09375 29.609375 1.09375 C 24.628906 1.09375 20.535156 -0.460938 17.328125 -3.578125 L 17.328125 19 L 4.390625 19 L 4.390625 -37.5 L 17.171875 -37.5 L 17.171875 -33.25 L 17.328125 -33.25 C 20.535156 -36.8125 24.628906 -38.59375 29.609375 -38.59375 C 35.015625 -38.59375 39.46875 -36.679688 42.96875 -32.859375 Z M 31.96875 -12.421875 C 33.65625 -14.078125 34.5 -16.195312 34.5 -18.78125 C 34.5 -21.363281 33.691406 -23.472656 32.078125 -25.109375 C 30.472656 -26.742188 28.359375 -27.5625 25.734375 -27.5625 C 23.191406 -27.5625 21.101562 -26.734375 19.46875 -25.078125 C 17.84375 -23.421875 17.03125 -21.320312 17.03125 -18.78125 C 17.03125 -16.195312 17.867188 -14.078125 19.546875 -12.421875 C 21.234375 -10.765625 23.296875 -9.9375 25.734375 -9.9375 C 28.210938 -9.9375 30.289062 -10.765625 31.96875 -12.421875 Z M 31.96875 -12.421875 "/></g></g></g><g fill="#000000" fill-opacity="1"><g transform="translate(157.980143, 75.806905)"><g><path d="M 42.328125 -16.953125 L 15.125 -16.953125 C 15.125 -14.328125 15.976562 -12.378906 17.6875 -11.109375 C 19.394531 -9.835938 21.25 -9.203125 23.25 -9.203125 C 25.34375 -9.203125 27 -9.484375 28.21875 -10.046875 C 29.4375 -10.609375 30.820312 -11.71875 32.375 -13.375 L 41.734375 -8.703125 C 37.835938 -2.171875 31.359375 1.09375 22.296875 1.09375 C 16.640625 1.09375 11.789062 -0.84375 7.75 -4.71875 C 3.707031 -8.59375 1.6875 -13.257812 1.6875 -18.71875 C 1.6875 -24.175781 3.707031 -28.851562 7.75 -32.75 C 11.789062 -36.644531 16.640625 -38.59375 22.296875 -38.59375 C 28.242188 -38.59375 33.078125 -36.875 36.796875 -33.4375 C 40.523438 -30 42.390625 -25.09375 42.390625 -18.71875 C 42.390625 -17.832031 42.367188 -17.242188 42.328125 -16.953125 Z M 15.5 -24.125 L 29.75 -24.125 C 29.457031 -26.070312 28.6875 -27.566406 27.4375 -28.609375 C 26.195312 -29.660156 24.601562 -30.1875 22.65625 -30.1875 C 20.507812 -30.1875 18.800781 -29.625 17.53125 -28.5 C 16.269531 -27.382812 15.59375 -25.925781 15.5 -24.125 Z M 15.5 -24.125 "/></g></g></g><g fill="#000000" fill-opacity="1"><g transform="translate(195.177956, 75.806905)"><g><path d="M 42.328125 -16.953125 L 15.125 -16.953125 C 15.125 -14.328125 15.976562 -12.378906 17.6875 -11.109375 C 19.394531 -9.835938 21.25 -9.203125 23.25 -9.203125 C 25.34375 -9.203125 27 -9.484375 28.21875 -10.046875 C 29.4375 -10.609375 30.820312 -11.71875 32.375 -13.375 L 41.734375 -8.703125 C 37.835938 -2.171875 31.359375 1.09375 22.296875 1.09375 C 16.640625 1.09375 11.789062 -0.84375 7.75 -4.71875 C 3.707031 -8.59375 1.6875 -13.257812 1.6875 -18.71875 C 1.6875 -24.175781 3.707031 -28.851562 7.75 -32.75 C 11.789062 -36.644531 16.640625 -38.59375 22.296875 -38.59375 C 28.242188 -38.59375 33.078125 -36.875 36.796875 -33.4375 C 40.523438 -30 42.390625 -25.09375 42.390625 -18.71875 C 42.390625 -17.832031 42.367188 -17.242188 42.328125 -16.953125 Z M 15.5 -24.125 L 29.75 -24.125 C 29.457031 -26.070312 28.6875 -27.566406 27.4375 -28.609375 C 26.195312 -29.660156 24.601562 -30.1875 22.65625 -30.1875 C 20.507812 -30.1875 18.800781 -29.625 17.53125 -28.5 C 16.269531 -27.382812 15.59375 -25.925781 15.5 -24.125 Z M 15.5 -24.125 "/></g></g></g><g fill="#000000" fill-opacity="1"><g transform="translate(232.37577, 75.806905)"><g><path d="M 6.9375 -4.640625 C 3.4375 -8.460938 1.6875 -13.148438 1.6875 -18.703125 C 1.6875 -24.265625 3.4375 -28.96875 6.9375 -32.8125 C 10.445312 -36.664062 14.90625 -38.59375 20.3125 -38.59375 C 25.289062 -38.59375 29.382812 -37.035156 32.59375 -33.921875 L 32.59375 -62.859375 L 45.53125 -62.859375 L 45.53125 0 L 32.75 0 L 32.75 -4.234375 L 32.59375 -4.234375 C 29.382812 -0.679688 25.289062 1.09375 20.3125 1.09375 C 14.90625 1.09375 10.445312 -0.816406 6.9375 -4.640625 Z M 17.9375 -25.078125 C 16.257812 -23.421875 15.421875 -21.300781 15.421875 -18.71875 C 15.421875 -16.132812 16.222656 -14.023438 17.828125 -12.390625 C 19.441406 -10.753906 21.5625 -9.9375 24.1875 -9.9375 C 26.726562 -9.9375 28.8125 -10.765625 30.4375 -12.421875 C 32.070312 -14.078125 32.890625 -16.175781 32.890625 -18.71875 C 32.890625 -21.300781 32.046875 -23.421875 30.359375 -25.078125 C 28.679688 -26.734375 26.625 -27.5625 24.1875 -27.5625 C 21.707031 -27.5625 19.625 -26.734375 17.9375 -25.078125 Z M 17.9375 -25.078125 "/></g></g></g><g fill="#000000" fill-opacity="1"><g transform="translate(275.420309, 75.806905)"><g><path d="M 5.625 -58.40625 C 7.132812 -59.914062 8.9375 -60.671875 11.03125 -60.671875 C 13.132812 -60.671875 14.941406 -59.914062 16.453125 -58.40625 C 17.960938 -56.894531 18.71875 -55.085938 18.71875 -52.984375 C 18.71875 -50.890625 17.960938 -49.085938 16.453125 -47.578125 C 14.941406 -46.066406 13.132812 -45.3125 11.03125 -45.3125 C 8.9375 -45.3125 7.132812 -46.066406 5.625 -47.578125 C 4.113281 -49.085938 3.359375 -50.890625 3.359375 -52.984375 C 3.359375 -55.085938 4.113281 -56.894531 5.625 -58.40625 Z M 4.390625 -37.5 L 4.390625 0 L 17.328125 0 L 17.328125 -37.5 Z M 4.390625 -37.5 "/></g></g></g><g fill="#000000" fill-opacity="1"><g transform="translate(290.619802, 75.806905)"><g><path d="M 6.578125 -37.5 L 6.578125 -45.46875 C 6.628906 -51.070312 7.945312 -55.550781 10.53125 -58.90625 C 13.113281 -62.269531 16.691406 -63.953125 21.265625 -63.953125 C 23.210938 -63.953125 25.078125 -63.671875 26.859375 -63.109375 C 28.640625 -62.554688 29.921875 -61.988281 30.703125 -61.40625 L 31.9375 -60.59375 L 27.40625 -51.453125 C 26.238281 -52.140625 24.945312 -52.484375 23.53125 -52.484375 C 21.925781 -52.484375 20.851562 -51.929688 20.3125 -50.828125 C 19.78125 -49.734375 19.515625 -47.820312 19.515625 -45.09375 L 19.515625 -37.5 L 28.140625 -37.5 L 28.140625 -27.625 L 19.515625 -27.625 L 19.515625 0 L 6.578125 0 L 6.578125 -27.625 L 1.171875 -27.625 L 1.171875 -37.5 Z M 6.578125 -37.5 "/></g></g></g><g fill="#000000" fill-opacity="1"><g transform="translate(311.154441, 75.806905)"><g><path d="M 32.8125 -37.5 L 47.734375 -37.5 L 18.265625 19 L 3.359375 19 L 16.296875 -5.84375 L -1.46875 -37.5 L 13.453125 -37.5 L 23.90625 -18.265625 Z M 32.8125 -37.5 "/></g></g></g><g fill="#000000" fill-opacity="1"><g transform="translate(350.54479, 75.806905)"><g><path d="M 12.71875 -15.640625 C 15.0625 -15.640625 17.046875 -14.820312 18.671875 -13.1875 C 20.304688 -11.5625 21.125 -9.578125 21.125 -7.234375 C 21.125 -4.941406 20.304688 -2.976562 18.671875 -1.34375 C 17.046875 0.28125 15.0625 1.09375 12.71875 1.09375 C 10.425781 1.09375 8.460938 0.28125 6.828125 -1.34375 C 5.203125 -2.976562 4.390625 -4.941406 4.390625 -7.234375 C 4.390625 -9.578125 5.203125 -11.5625 6.828125 -13.1875 C 8.460938 -14.820312 10.425781 -15.640625 12.71875 -15.640625 Z M 12.71875 -15.640625 "/></g></g></g></svg>