<svg xmlns="http://www.w3.org/2000/svg" id="Layer_1" data-name="Layer 1" viewBox="0 0 120 120"><title>twitter</title><path d="M84.7,36.49H34.5a8.36,8.36,0,0,0-8.36,8.37V78.32a8.36,8.36,0,0,0,8.36,8.37H84.7a8.37,8.37,0,0,0,8.37-8.37V44.86A8.37,8.37,0,0,0,84.7,36.49ZM70.93,58.82,88.64,43.64a4.13,4.13,0,0,1,.24,1.22V78.32a4.68,4.68,0,0,1-.16.83ZM84.7,40.68a3.57,3.57,0,0,1,.79.16L59.6,63,33.72,40.84a3.49,3.49,0,0,1,.78-.16ZM30.49,79.14a3.73,3.73,0,0,1-.17-.82V44.86a3.84,3.84,0,0,1,.25-1.22l17.7,15.17Zm4,3.37a4,4,0,0,1-1.19-.24L51.45,61.54l6.79,5.82a2.07,2.07,0,0,0,2.72,0l6.8-5.82L85.89,82.27a3.88,3.88,0,0,1-1.19.24Z" fill="#fff"></path><rect width="120" height="120" fill="#78cbef"></rect><path d="M91.12,43.6a24.59,24.59,0,0,1-7.07,1.94,12.36,12.36,0,0,0,5.42-6.81,24.63,24.63,0,0,1-7.83,3,12.3,12.3,0,0,0-21.29,8.52,12.11,12.11,0,0,0,.32,2.71A34.92,34.92,0,0,1,35.29,40.08,12.32,12.32,0,0,0,39.1,56.52,12.25,12.25,0,0,1,33.52,55v.15A12.3,12.3,0,0,0,43.4,67.2a12,12,0,0,1-3.25.44,11.75,11.75,0,0,1-2.31-.22A12.32,12.32,0,0,0,49.34,76a24.75,24.75,0,0,1-15.29,5.27,25.8,25.8,0,0,1-2.94-.17A34.88,34.88,0,0,0,50,86.6c22.65,0,35-18.76,35-35,0-.54,0-1.07,0-1.6a24.63,24.63,0,0,0,6.14-6.37" fill="#fff"></path></svg>