<svg width="71" height="71" viewBox="0 0 71 71" fill="none" xmlns="http://www.w3.org/2000/svg">
<g clip-path="url(#clip0_42_150)">
<path d="M33.7113 37.3135H23.7065V31.7093H33.7171V37.3164L33.7113 37.3135ZM43.7219 0.485413V18.0995H61.336L43.7219 0.485413ZM47.7233 31.7093H37.7126V37.3164H47.7233V31.7093ZM47.7233 41.3177H37.7126V46.9249H47.7233V41.3177ZM61.333 19.5673V66.1389C61.333 68.7927 59.1841 70.9417 56.5303 70.9417H14.8965C14.2658 70.9417 13.6413 70.8174 13.0586 70.5761C12.4759 70.3347 11.9464 69.9809 11.5004 69.535C10.5998 68.6343 10.0938 67.4127 10.0938 66.1389V5.28818C10.0938 2.63433 12.2427 0.485413 14.8965 0.485413H42.2512V19.5673H61.333ZM51.7246 27.7079H19.6993V50.9262H51.7275V27.705L51.7246 27.7079ZM33.7113 41.3177H23.7065V46.9249H33.7171V41.3177H33.7113Z" fill="black"/>
</g>
<defs>
<clipPath id="clip0_42_150">
<rect width="70.4562" height="70.4562" fill="white" transform="translate(0.485352 0.485413)"/>
</clipPath>
</defs>
</svg>
