<svg width="78" height="78" viewBox="0 0 78 78" fill="none" xmlns="http://www.w3.org/2000/svg">
<path d="M30.801 11.2545C25.3124 8.63399 17.6408 7.35033 7.37 7.30476C6.40136 7.2916 5.45172 7.57405 4.64773 8.11445C3.9878 8.56051 3.44759 9.1619 3.07462 9.86572C2.70165 10.5695 2.50735 11.3542 2.5088 12.1508V55.6129C2.5088 58.5509 4.59911 60.7673 7.37 60.7673C18.1664 60.7673 28.9963 61.776 35.4829 67.9072C35.5717 67.9915 35.6832 68.0478 35.8037 68.0692C35.9242 68.0906 36.0483 68.0761 36.1606 68.0276C36.2729 67.979 36.3685 67.8985 36.4354 67.7961C36.5024 67.6937 36.5378 67.5738 36.5372 67.4515V16.2403C36.5374 15.8948 36.4634 15.5532 36.3203 15.2388C36.1772 14.9243 35.9683 14.6442 35.7078 14.4173C34.2219 13.1471 32.5714 12.0832 30.801 11.2545ZM73.2879 8.10989C72.4835 7.57084 71.5338 7.28996 70.5656 7.30476C60.2948 7.35033 52.6232 8.62791 47.1346 11.2545C45.3643 12.0817 43.7133 13.1435 42.2263 14.4112C41.9663 14.6384 41.7578 14.9186 41.615 15.2331C41.4722 15.5475 41.3983 15.8888 41.3984 16.2342V67.4484C41.3983 67.566 41.433 67.681 41.498 67.779C41.563 67.877 41.6555 67.9535 41.7639 67.9991C41.8723 68.0447 41.9918 68.0573 42.1073 68.0353C42.2228 68.0132 42.3292 67.9576 42.4132 67.8753C46.3128 64.0016 53.1564 60.7628 70.5717 60.7643C71.861 60.7643 73.0974 60.2521 74.0091 59.3405C74.9207 58.4288 75.4329 57.1924 75.4329 55.9031V12.1523C75.4347 11.3542 75.2399 10.5679 74.8658 9.8629C74.4917 9.15789 73.9498 8.55583 73.2879 8.10989Z" fill="black"/>
</svg>
