<svg width="77" height="77" viewBox="0 0 77 77" fill="none" xmlns="http://www.w3.org/2000/svg">
<path d="M54.5415 9.625C56.9966 9.62486 59.3589 10.5629 61.1451 12.2471C62.9313 13.9314 64.0064 16.2345 64.1505 18.6853L64.1665 19.25V33.2063L66.0723 32.3593C68.0422 31.4834 70.3137 32.8405 70.5639 34.9195L70.5832 35.2917V60.9583C70.5837 62.5772 69.9723 64.1364 68.8715 65.3234C67.7708 66.5104 66.262 67.2375 64.6478 67.359L64.1665 67.375H12.8332C11.2143 67.3755 9.6551 66.7641 8.46808 65.6634C7.28106 64.5626 6.55396 63.0539 6.43255 61.4396L6.4165 60.9583V35.2917C6.4165 33.1357 8.58213 31.6117 10.5777 32.2277L10.9306 32.3593L12.8332 33.2063V19.25C12.833 16.7949 13.771 14.4326 15.4553 12.6464C17.1395 10.8602 19.4427 9.78507 21.8935 9.64104L22.4582 9.625H54.5415ZM54.5415 16.0417H22.4582C21.6073 16.0417 20.7912 16.3797 20.1895 16.9814C19.5879 17.583 19.2498 18.3991 19.2498 19.25V36.0585L38.4998 44.6151L57.7498 36.0585V19.25C57.7498 18.3991 57.4118 17.583 56.8101 16.9814C56.2085 16.3797 55.3924 16.0417 54.5415 16.0417ZM38.4998 25.6667C39.3176 25.6676 40.1041 25.9807 40.6987 26.5421C41.2934 27.1034 41.6512 27.8706 41.6991 28.687C41.747 29.5033 41.4814 30.3071 40.9566 30.9342C40.4317 31.5613 39.6872 31.9643 38.8752 32.0609L38.4998 32.0833H32.0832C31.2654 32.0824 30.4789 31.7693 29.8843 31.2079C29.2897 30.6466 28.9318 29.8794 28.8839 29.063C28.836 28.2467 29.1016 27.4429 29.6264 26.8158C30.1513 26.1887 30.8958 25.7857 31.7078 25.6891L32.0832 25.6667H38.4998Z" fill="black"/>
</svg>
